<?xml version="1.0" standalone="no"?>
<!DOCTYPE svg PUBLIC "-//W3C//DTD SVG 20010904//EN"
 "http://www.w3.org/TR/2001/REC-SVG-20010904/DTD/svg10.dtd">
<svg version="1.0" xmlns="http://www.w3.org/2000/svg"
 width="512px" height="512px" viewBox="0 0 1280.000000 794.000000"
 preserveAspectRatio="xMidYMid meet">
<g transform="translate(-150.000000,844.000000) scale(0.1250000,-0.1250000)"
fill="#a9d9ff" stroke="none">
<path d="M3798 5923 c-30 -43 -93 -134 -140 -203 -171 -251 -1374 -2000 -1483
-2155 -129 -184 -161 -242 -204 -377 -44 -140 -61 -250 -61 -408 0 -275 63
-479 210 -678 69 -94 98 -112 184 -112 30 0 58 -4 61 -10 3 -5 -5 -60 -19
-122 -13 -62 -30 -153 -36 -203 -15 -120 -27 -336 -19 -341 9 -5 79 41 257
169 87 62 163 116 170 121 16 10 56 -23 226 -183 71 -67 133 -120 139 -118 6
2 21 61 34 131 27 156 106 458 131 500 16 28 24 32 83 37 35 4 1371 8 2969 9
1598 1 2916 5 2929 9 26 7 -39 -109 978 1744 601 1096 588 1070 551 1114 -8
10 -58 13 -188 13 -203 0 -202 -1 -227 92 -20 69 -28 350 -15 495 l10 112 92
163 c96 168 113 218 87 253 -15 20 -27 20 -3284 20 -1797 0 -3279 -1 -3293 -3
-14 -1 -39 0 -56 4 -30 6 -34 2 -86 -73z"/>
</g>
</svg>
